# xmcd
#
# Track frame offsets: 
#        165
#        16472
#        38224
#        56906
#        69939
#        90212
#        114888
#        132901
#        149812
#        167229
#        182670
#        199738
#        217366
#        236384
#        252105
#        269215
#        286922
#
# Disc length: 4090 seconds
#
# Revision: 0
# Processed by: cddbd v1.5.2PL0 Copyright (c) Steve Scherf et al.
# Submitted via: ExactAudioCopy v0.95b3
#
DISCID=040ff811
DTITLE=Melanie Fiona - The MF Life
DYEAR=2012
DGENRE=Hip-Hop
TTITLE0=This Time
TTITLE1=4 AM
TTITLE2=Break Down These Walls
TTITLE3=I Been That Girl
TTITLE4=Wrong Side of a Love Song
TTITLE5=Running
TTITLE6=Change the Record
TTITLE7=Gone and Never Coming Back
TTITLE8=Bones
TTITLE9=Watch Me Work
TTITLE10=Can't Say I never Loved You
TTITLE11=L.O.V.E
TTITLE12=6 AM
TTITLE13=Rock Paper Scissors
TTITLE14=Can't Do This No More
TTITLE15=What Am I To Do?
TTITLE16=Like I Love You
EXTD=
EXTT0=
EXTT1=
EXTT2=
EXTT3=
EXTT4=
EXTT5=
EXTT6=
EXTT7=
EXTT8=
EXTT9=
EXTT10=
EXTT11=
EXTT12=
EXTT13=
EXTT14=
EXTT15=
EXTT16=
PLAYORDER=
